<?xml version="1.0" encoding="utf-8"?>
<!-- Generator: Adobe Illustrator 25.0.1, SVG Export Plug-In . SVG Version: 6.00 Build 0)  -->
<svg version="1.1" id="Capa_1" xmlns="http://www.w3.org/2000/svg" xmlns:xlink="http://www.w3.org/1999/xlink" x="0px" y="0px"
	 viewBox="0 0 511 511" style="enable-background:new 0 0 511 511;" xml:space="preserve">
<style type="text/css">
	.st0{fill:#FAD466;}
	.st1{fill:#231F20;stroke:#231F20;stroke-miterlimit:10;}
</style>
<rect x="15" y="71" class="st0" width="481" height="369"/>
<path class="st1" d="M455.5,56h-400C24.9,56,0,80.9,0,111.5v288C0,430.1,24.9,455,55.5,455h400c30.6,0,55.5-24.9,55.5-55.5v-288
	C511,80.9,486.1,56,455.5,56z M464,248H343v-56.5c0-4.7,3.8-8.5,8.5-8.5H464V248z M343,263h121v65H343V263z M479,223h17v65h-17V223z
	 M479,208v-65h17v65H479z M464,168H351.5c-13,0-23.5,10.5-23.5,23.5V408H183V103h272.5c4.7,0,8.5,3.8,8.5,8.5V168z M168,248H47v-65
	h121V248z M32,288H15v-65h17V288z M47,263h121v65H47V263z M263,88V71h137v17H263z M248,88H111V71h137V88z M168,103v65H47v-56.5
	c0-4.7,3.8-8.5,8.5-8.5H168z M32,208H15v-65h17V208z M15,303h17v65H15V303z M47,343h121v65H55.5c-4.7,0-8.5-3.8-8.5-8.5V343z
	 M248,423v17H111v-17H248z M263,423h137v17H263V423z M343,408v-65h121v56.5c0,4.7-3.8,8.5-8.5,8.5H343z M479,303h17v65h-17V303z
	 M496,111.5V128h-17v-16.5c0-13-10.5-23.5-23.5-23.5H415V71h40.5C477.8,71,496,89.2,496,111.5z M55.5,71H96v17H55.5
	C42.5,88,32,98.5,32,111.5V128H15v-16.5C15,89.2,33.2,71,55.5,71z M15,399.5V383h17v16.5c0,13,10.5,23.5,23.5,23.5H96v17H55.5
	C33.2,440,15,421.8,15,399.5z M455.5,440H415v-17h40.5c13,0,23.5-10.5,23.5-23.5V383h17v16.5C496,421.8,477.8,440,455.5,440z"/>
</svg>
